<svg xmlns="http://www.w3.org/2000/svg" version="1.1" xmlns:xlink="http://www.w3.org/1999/xlink" width="1500" height="1500" viewBox="0 0 1500 1500"><g transform="matrix(1,0,0,1,-0.3236151603499593,-0.3236151603499593)"><svg viewBox="0 0 343 343" data-background-color="#ffffff" preserveAspectRatio="xMidYMid meet" height="1500" width="1500" xmlns="http://www.w3.org/2000/svg" xmlns:xlink="http://www.w3.org/1999/xlink"><g id="tight-bounds" transform="matrix(1,0,0,1,0.07400000000001228,0.07400000000001228)"><svg viewBox="0 0 342.8515585177538 342.8515585177538" height="342.8515585177538" width="342.8515585177538"><g><svg></svg></g><g><svg viewBox="0 0 342.8515585177538 342.8515585177538" height="342.8515585177538" width="342.8515585177538"><g><path d="M0 171.426c0-94.676 76.75-171.426 171.426-171.426 94.676 0 171.426 76.75 171.426 171.426 0 94.676-76.75 171.426-171.426 171.426-94.676 0-171.426-76.75-171.426-171.426zM171.426 330.565c87.89 0 159.139-71.249 159.139-159.139 0-87.89-71.249-159.139-159.139-159.139-87.89 0-159.139 71.249-159.139 159.139 0 87.89 71.249 159.139 159.139 159.139z" data-fill-palette-color="tertiary" fill="#2b2b2b" stroke="transparent"></path><ellipse rx="164.56874808852183" ry="164.56874808852183" cx="171.4257792588769" cy="171.4257792588769" fill="#2b2b2b" stroke="transparent" stroke-width="0" fill-opacity="1" data-fill-palette-color="tertiary"></ellipse></g><g transform="matrix(1,0,0,1,64.84655864529836,103.30350848560552)"><svg viewBox="0 0 213.15844122715708 136.24454154654276" height="136.24454154654276" width="213.15844122715708"><g><svg viewBox="0 0 213.15844122715708 136.24454154654276" height="136.24454154654276" width="213.15844122715708"><g><svg viewBox="0 0 213.15844122715714 136.2445415465428" height="136.24454154654276" width="213.15844122715708"><g><svg viewBox="0 0 213.15844122715714 136.2445415465428" height="136.2445415465428" width="213.15844122715714"><g id="textblocktransform"><svg viewBox="0 0 213.15844122715714 136.2445415465428" height="136.2445415465428" width="213.15844122715714" id="textblock"><g><svg viewBox="0 0 213.15844122715714 136.2445415465428" height="136.2445415465428" width="213.15844122715714"><g transform="matrix(1,0,0,1,0,0)"><svg width="213.15844122715714" viewBox="2.6 -32.52 51.82 33.120000000000005" height="136.2445415465428" data-palette-color="#ffffff"><path d="M13.6 0.6L13.6 0.6Q9.98 0.6 7.53-0.86 5.08-2.33 3.84-5.13 2.6-7.93 2.6-11.9L2.6-11.9 2.6-19.45Q2.6-25.75 5.84-29.14 9.08-32.52 15.35-32.52L15.35-32.52Q17.6-32.52 19.44-32.16 21.28-31.8 22.7-31.21 24.13-30.63 25.15-29.98L25.15-29.98 25.53-26.23Q23.8-27.33 21.46-28.15 19.13-28.98 16.05-28.98L16.05-28.98Q11.4-28.98 9.11-26.5 6.83-24.03 6.83-19.38L6.83-19.38 6.83-11.93Q6.83-7.63 8.84-5.29 10.85-2.95 14.88-2.95L14.88-2.95Q16.93-2.95 18.39-3.65 19.85-4.35 20.79-5.5 21.73-6.65 22.15-8.03L22.15-8.03 22.15-15.9 22.83-14.43 15.3-14.43 15.3-17.88 26.2-17.88 26.2-5.25 22.13-5.28Q21.73-3.73 20.75-2.38 19.78-1.03 18.03-0.21 16.28 0.6 13.6 0.6ZM22.15 0L22.33-6.6 26.2-6.6 26.2 0 22.15 0ZM44.85 0L40.7 0 40.7-31.28 44.85-31.28 44.85 0ZM54.42-28.48L31.12-28.48 31.12-31.95 54.42-31.95 54.42-28.48Z" opacity="1" transform="matrix(1,0,0,1,0,0)" fill="#ffffff" class="wordmark-text-0" data-fill-palette-color="quaternary" id="text-0"></path></svg></g></svg></g></svg></g></svg></g><g></g></svg></g></svg></g></svg></g></svg></g><defs></defs></svg><rect width="342.8515585177538" height="342.8515585177538" fill="none" stroke="none" visibility="hidden"></rect></g></svg></g></svg>